<svg width="21" height="18" viewBox="0 0 21 18" fill="none" xmlns="http://www.w3.org/2000/svg">
<path d="M18.9221 5.6949C19.0593 5.5719 19.1646 5.4176 19.2293 5.24511C19.294 5.07263 19.3161 4.88707 19.2936 4.70423C19.2761 4.53664 19.2094 4.378 19.1018 4.24835C18.9941 4.11869 18.8505 4.02385 18.689 3.97579C18.5539 4.09879 18.4498 4.252 18.3853 4.42291C18.3207 4.59382 18.2975 4.77758 18.3175 4.95918C18.3346 5.12775 18.4011 5.28752 18.5086 5.41842C18.6162 5.54932 18.7601 5.64551 18.9221 5.6949ZM19.3665 6.09555C19.2178 6.21979 19.1011 6.37794 19.0263 6.55669C18.9515 6.73543 18.9208 6.92953 18.9367 7.12264C19.1254 7.1392 19.3154 7.11559 19.4943 7.05336C19.6732 6.99113 19.8368 6.8917 19.9745 6.76161C20.1121 6.63153 20.2206 6.47375 20.2929 6.29867C20.3651 6.1236 20.3994 5.9352 20.3936 5.7459C20.207 5.72072 20.0171 5.7392 19.8389 5.79987C19.6606 5.86055 19.4989 5.96176 19.3665 6.09555ZM18.7546 7.08622C18.8029 6.91207 18.8019 6.72793 18.7518 6.5543C18.7016 6.38067 18.6042 6.22438 18.4705 6.10283C18.3367 5.97917 18.1718 5.8942 17.9935 5.85699C17.8151 5.81978 17.63 5.83174 17.458 5.89158C17.407 6.06495 17.406 6.24915 17.455 6.42308C17.5039 6.59701 17.6009 6.75363 17.7348 6.87497C17.8701 6.99857 18.0362 7.08342 18.2157 7.12059C18.3951 7.15777 18.5813 7.14589 18.7546 7.08622ZM18.7619 8.34642C18.5805 8.46079 18.4282 8.61574 18.3169 8.79904C18.2057 8.98234 18.1386 9.18897 18.1208 9.40266C18.3211 9.46565 18.5337 9.47933 18.7404 9.44255C18.9471 9.40578 19.1419 9.31962 19.3082 9.19141C19.4884 9.07579 19.6399 8.92053 19.751 8.73748C19.862 8.55443 19.9299 8.34842 19.9492 8.13517C19.7492 8.07029 19.5362 8.05563 19.3292 8.09247C19.1221 8.1293 18.9273 8.21652 18.7619 8.34642ZM17.9314 9.32253C18.0141 9.14179 18.0462 8.94206 18.0244 8.74453C18.0026 8.54701 17.9277 8.35909 17.8076 8.20073C17.6887 8.04335 17.5281 7.9224 17.344 7.8516C17.1599 7.78079 16.9597 7.76295 16.7659 7.80009C16.6792 7.97827 16.6422 8.17656 16.6589 8.37402C16.6756 8.57148 16.7453 8.76077 16.8606 8.92188C16.9819 9.08439 17.1473 9.20857 17.3371 9.27961C17.527 9.35065 17.7333 9.36555 17.9314 9.32253ZM18.1354 10.6847C17.9126 10.7711 17.7119 10.9062 17.5481 11.0801C17.3842 11.254 17.2614 11.4624 17.1884 11.69C17.3765 11.8109 17.5923 11.8817 17.8154 11.8957C18.0385 11.9098 18.2615 11.8665 18.4632 11.7701C18.686 11.6837 18.8867 11.5486 19.0505 11.3747C19.2144 11.2008 19.3373 10.9924 19.4102 10.7648C19.223 10.6419 19.0069 10.5699 18.7834 10.5558C18.5599 10.5418 18.3365 10.5862 18.1354 10.6847ZM16.0521 10.845C16.1231 11.0474 16.2522 11.2244 16.4232 11.3539C16.5942 11.4834 16.7995 11.5598 17.0136 11.5734C17.1479 11.393 17.235 11.1818 17.2668 10.9592C17.2986 10.7365 17.2742 10.5094 17.1957 10.2986C17.1233 10.0957 16.9929 9.91842 16.8207 9.78892C16.6485 9.65942 16.442 9.58336 16.2269 9.5702C16.0919 9.75036 16.0051 9.96192 15.9745 10.1849C15.9439 10.408 15.9706 10.6351 16.0521 10.845ZM16.8606 12.6224C16.6286 12.6824 16.4128 12.7933 16.2288 12.947C16.0449 13.1007 15.8974 13.2934 15.7971 13.511C15.9612 13.659 16.1621 13.7601 16.3787 13.8036C16.5953 13.8472 16.8196 13.8317 17.0282 13.7587C17.2609 13.7004 17.4777 13.5911 17.6629 13.4386C17.8481 13.2862 17.997 13.0944 18.099 12.8773C17.9337 12.7288 17.7319 12.627 17.5143 12.5822C17.2967 12.5374 17.0711 12.5512 16.8606 12.6224ZM15.1852 11.2456C15.0276 11.4106 14.9132 11.6119 14.8522 11.8318C14.7912 12.0517 14.7855 12.2832 14.8356 12.5058C14.8765 12.7142 14.9777 12.9061 15.1266 13.0576C15.2755 13.2091 15.4656 13.3136 15.6733 13.3581C15.8259 13.1913 15.9376 12.9912 15.9996 12.7737C16.0616 12.5563 16.072 12.3274 16.0302 12.1052C15.9901 11.8944 15.8884 11.7003 15.738 11.5473C15.5876 11.3943 15.3953 11.2893 15.1852 11.2456ZM15.076 14.4143C14.8182 14.3935 14.5591 14.4327 14.319 14.5287C14.0789 14.6248 13.8643 14.7751 13.6919 14.9679C13.7767 15.1912 13.9257 15.3844 14.1202 15.5232C14.3147 15.6619 14.5458 15.7399 14.7846 15.7474C15.043 15.7673 15.3024 15.727 15.5426 15.6296C15.7827 15.5323 15.997 15.3806 16.1686 15.1865C16.0819 14.965 15.9322 14.7739 15.738 14.6367C15.5438 14.4994 15.3136 14.4221 15.076 14.4143ZM13.1383 13.4819C13.0882 13.7152 13.1062 13.9581 13.1902 14.1815C13.2741 14.4049 13.4205 14.5995 13.6118 14.7421C13.8384 14.611 14.0323 14.4301 14.1787 14.213C14.3251 13.996 14.4202 13.7484 14.4568 13.4892C14.5051 13.2559 14.4862 13.0136 14.4024 12.7906C14.3186 12.5675 14.1733 12.3728 13.9833 12.229C13.7567 12.3601 13.5628 12.541 13.4164 12.7581C13.27 12.9751 13.1749 13.2227 13.1383 13.4819ZM12.745 15.6381C12.4622 15.6144 12.1777 15.6575 11.9146 15.7637C11.6514 15.87 11.4169 16.0366 11.2298 16.25C11.326 16.4906 11.4902 16.698 11.7023 16.8468C11.9145 16.9956 12.1655 17.0793 12.4245 17.0877C12.7081 17.1091 12.9929 17.065 13.2569 16.9589C13.5209 16.8529 13.7569 16.6876 13.9469 16.4758C13.8502 16.234 13.6849 16.0259 13.4713 15.877C13.2577 15.7282 13.0052 15.6451 12.745 15.6381ZM12.0675 14.6256C12.1236 14.3696 12.1046 14.1028 12.0129 13.8573C11.9211 13.6118 11.7605 13.398 11.5503 13.2415C11.3002 13.3829 11.0861 13.58 10.9244 13.8175C10.7627 14.055 10.6578 14.3265 10.6179 14.611C10.5658 14.8681 10.5865 15.1346 10.6779 15.3805C10.7693 15.6263 10.9277 15.8417 11.1351 16.0023C11.3847 15.8584 11.5983 15.6598 11.7598 15.4213C11.9213 15.1828 12.0266 14.9107 12.0675 14.6256ZM2.29188 4.95918C2.3131 4.77641 2.29047 4.59122 2.22586 4.41894C2.16126 4.24666 2.05654 4.09226 1.92038 3.96851C1.75888 4.01656 1.61525 4.11141 1.50764 4.24106C1.40002 4.37072 1.33326 4.52936 1.31577 4.69694C1.29333 4.87979 1.31539 5.06534 1.38007 5.23783C1.44475 5.41031 1.55014 5.56462 1.68728 5.68762C1.84829 5.63872 1.99142 5.54362 2.09889 5.41413C2.20637 5.28464 2.27347 5.12645 2.29188 4.95918ZM1.67271 7.12264C1.6886 6.92953 1.65786 6.73543 1.58306 6.55669C1.50827 6.37794 1.39162 6.21979 1.24293 6.09555C1.10737 5.95746 0.940826 5.8537 0.757126 5.79289C0.573426 5.73208 0.377869 5.71597 0.186693 5.7459C0.170798 5.93901 0.201543 6.13311 0.276337 6.31185C0.351131 6.4906 0.467784 6.64875 0.616471 6.77299C0.751318 6.91208 0.917786 7.01651 1.1017 7.07739C1.2856 7.13827 1.4815 7.1538 1.67271 7.12264ZM1.85482 7.08622C2.0281 7.14589 2.21426 7.15777 2.39372 7.12059C2.57318 7.08342 2.73931 6.99857 2.87463 6.87497C3.0085 6.75363 3.10548 6.59701 3.15444 6.42308C3.2034 6.24915 3.20235 6.06495 3.15144 5.89158C2.97936 5.83174 2.79426 5.81978 2.61592 5.85699C2.43757 5.8942 2.2727 5.97917 2.13891 6.10283C2.00516 6.22438 1.90778 6.38067 1.85762 6.5543C1.80746 6.72793 1.80649 6.91207 1.85482 7.08622ZM2.48856 9.40266C2.47083 9.18897 2.40369 8.98234 2.29245 8.79904C2.1812 8.61574 2.02889 8.46079 1.84753 8.34642C1.68148 8.21775 1.48635 8.13185 1.2793 8.09628C1.07226 8.06072 0.859653 8.07657 0.660177 8.14246C0.680603 8.35443 0.748918 8.559 0.859965 8.74071C0.971011 8.92242 1.12189 9.07653 1.3012 9.19141C1.46748 9.31962 1.66227 9.40578 1.86899 9.44255C2.07571 9.47933 2.28826 9.46565 2.48856 9.40266ZM2.67795 9.32253C2.87606 9.36555 3.08237 9.35065 3.27225 9.27961C3.46212 9.20857 3.62754 9.08439 3.74875 8.92188C3.86881 8.76353 3.94371 8.5756 3.96552 8.37808C3.98732 8.18056 3.95521 7.98082 3.87259 7.80009C3.67887 7.76295 3.47862 7.78079 3.29452 7.8516C3.11042 7.9224 2.94982 8.04335 2.83092 8.20073C2.70613 8.35628 2.62597 8.54284 2.59902 8.74044C2.57208 8.93803 2.59936 9.13924 2.67795 9.32253ZM3.42096 11.69C3.34804 11.4624 3.22516 11.254 3.06131 11.0801C2.89746 10.9062 2.69679 10.7711 2.47399 10.6847C2.27285 10.5862 2.04951 10.5418 1.82599 10.5558C1.60246 10.5699 1.38644 10.6419 1.19922 10.7648C1.27214 10.9924 1.39502 11.2008 1.55887 11.3747C1.72272 11.5486 1.92339 11.6837 2.14619 11.7701C2.34788 11.8665 2.57088 11.9098 2.79399 11.8957C3.01711 11.8817 3.23293 11.8109 3.42096 11.69ZM3.41367 10.2841C3.33524 10.4949 3.31081 10.7219 3.34262 10.9446C3.37442 11.1673 3.46146 11.3784 3.59578 11.5588C3.80986 11.5452 4.0152 11.4689 4.18619 11.3393C4.35717 11.2098 4.48625 11.0328 4.55732 10.8304C4.6388 10.6205 4.66551 10.3934 4.63493 10.1704C4.60434 9.94735 4.51747 9.73579 4.3825 9.55563C4.16741 9.5688 3.96093 9.64485 3.78869 9.77435C3.61646 9.90385 3.48605 10.0811 3.41367 10.2841ZM3.74875 12.6224C3.53827 12.5512 3.31267 12.5374 3.09507 12.5822C2.87746 12.627 2.67568 12.7288 2.51041 12.8773C2.61235 13.0944 2.76132 13.2862 2.94653 13.4386C3.13173 13.5911 3.34853 13.7004 3.58121 13.7587C3.78975 13.8317 4.01409 13.8472 4.2307 13.8036C4.4473 13.7601 4.64819 13.659 4.81227 13.511C4.71195 13.2934 4.56448 13.1007 4.38055 12.947C4.19661 12.7933 3.98081 12.6824 3.74875 12.6224ZM4.93611 13.3581C5.14382 13.3136 5.33391 13.2091 5.48282 13.0576C5.63173 12.9061 5.7329 12.7142 5.77381 12.5058C5.82393 12.2832 5.81823 12.0517 5.75722 11.8318C5.69622 11.6119 5.58181 11.4106 5.42416 11.2456C5.21414 11.2893 5.02178 11.3943 4.87138 11.5473C4.72099 11.7003 4.61931 11.8944 4.57917 12.1052C4.53736 12.3274 4.54784 12.5563 4.60979 12.7737C4.67175 12.9912 4.78347 13.1913 4.93611 13.3581ZM6.91746 14.9679C6.74514 14.7751 6.53052 14.6248 6.29041 14.5287C6.05029 14.4327 5.7912 14.3935 5.53343 14.4143C5.30069 14.4185 5.07404 14.4893 4.88036 14.6184C4.68669 14.7475 4.53412 14.9295 4.44077 15.1427C4.61238 15.3369 4.82668 15.4886 5.06684 15.5859C5.30699 15.6833 5.56644 15.7235 5.8248 15.7036C6.05856 15.6998 6.28618 15.6282 6.48011 15.4976C6.67403 15.3671 6.82595 15.1831 6.91746 14.9679ZM6.99759 14.7421C7.18894 14.5995 7.3353 14.4049 7.41924 14.1815C7.50318 13.9581 7.52117 13.7152 7.47107 13.4819C7.43851 13.2259 7.34897 12.9805 7.20904 12.7637C7.06911 12.5468 6.88235 12.3641 6.66251 12.229C6.47252 12.3728 6.3272 12.5675 6.24339 12.7906C6.15959 13.0136 6.14073 13.2559 6.18902 13.4892C6.22159 13.7452 6.31113 13.9906 6.45106 14.2074C6.59098 14.4243 6.77774 14.607 6.99759 14.7421ZM6.66251 16.4758C6.85177 16.6889 7.08752 16.8555 7.35152 16.9629C7.61552 17.0703 7.90068 17.1155 8.18494 17.095C8.44394 17.0866 8.69488 17.0028 8.90705 16.8541C9.11922 16.7053 9.28343 16.4979 9.37958 16.2573C9.19251 16.0438 8.95796 15.8773 8.69481 15.771C8.43166 15.6648 8.14724 15.6217 7.86443 15.6454C7.605 15.6518 7.35309 15.7338 7.13958 15.8813C6.92608 16.0288 6.76027 16.2354 6.66251 16.4758ZM9.05907 13.2415C8.84886 13.398 8.68826 13.6118 8.59652 13.8573C8.50479 14.1028 8.48581 14.3696 8.54188 14.6256C8.58285 14.9107 8.68807 15.1828 8.84959 15.4213C9.01112 15.6598 9.22472 15.8584 9.47428 16.0023C9.6817 15.8417 9.84006 15.6263 9.93145 15.3805C10.0229 15.1346 10.0436 14.8681 9.99147 14.611C9.95155 14.3265 9.84669 14.055 9.68501 13.8175C9.52332 13.58 9.30914 13.3829 9.05907 13.2415Z" fill="#121212"/>
<path d="M18.9221 5.6949C19.0593 5.5719 19.1646 5.4176 19.2293 5.24511C19.294 5.07263 19.3161 4.88707 19.2936 4.70423C19.2761 4.53664 19.2094 4.378 19.1018 4.24835C18.9941 4.11869 18.8505 4.02385 18.689 3.97579C18.5539 4.09879 18.4498 4.252 18.3853 4.42291C18.3207 4.59382 18.2975 4.77758 18.3175 4.95918C18.3346 5.12775 18.4011 5.28752 18.5086 5.41842C18.6162 5.54932 18.7601 5.64551 18.9221 5.6949ZM19.3665 6.09555C19.2178 6.21979 19.1011 6.37794 19.0263 6.55669C18.9515 6.73543 18.9208 6.92953 18.9367 7.12264C19.1254 7.1392 19.3154 7.11559 19.4943 7.05336C19.6732 6.99113 19.8368 6.8917 19.9745 6.76161C20.1121 6.63153 20.2206 6.47375 20.2929 6.29867C20.3651 6.1236 20.3994 5.9352 20.3936 5.7459C20.207 5.72072 20.0171 5.7392 19.8389 5.79987C19.6606 5.86055 19.4989 5.96176 19.3665 6.09555ZM18.7546 7.08622C18.8029 6.91207 18.8019 6.72793 18.7518 6.5543C18.7016 6.38067 18.6042 6.22438 18.4705 6.10283C18.3367 5.97917 18.1718 5.8942 17.9935 5.85699C17.8151 5.81978 17.63 5.83174 17.458 5.89158C17.407 6.06495 17.406 6.24915 17.455 6.42308C17.5039 6.59701 17.6009 6.75363 17.7348 6.87497C17.8701 6.99857 18.0362 7.08342 18.2157 7.12059C18.3951 7.15777 18.5813 7.14589 18.7546 7.08622ZM18.7619 8.34642C18.5805 8.46079 18.4282 8.61574 18.3169 8.79904C18.2057 8.98234 18.1386 9.18897 18.1208 9.40266C18.3211 9.46565 18.5337 9.47933 18.7404 9.44255C18.9471 9.40578 19.1419 9.31962 19.3082 9.19141C19.4884 9.07579 19.6399 8.92053 19.751 8.73748C19.862 8.55443 19.9299 8.34842 19.9492 8.13517C19.7492 8.07029 19.5362 8.05563 19.3292 8.09247C19.1221 8.1293 18.9273 8.21652 18.7619 8.34642ZM17.9314 9.32253C18.0141 9.14179 18.0462 8.94206 18.0244 8.74453C18.0026 8.54701 17.9277 8.35909 17.8076 8.20073C17.6887 8.04335 17.5281 7.9224 17.344 7.8516C17.1599 7.78079 16.9597 7.76295 16.7659 7.80009C16.6792 7.97827 16.6422 8.17656 16.6589 8.37402C16.6756 8.57148 16.7453 8.76077 16.8606 8.92188C16.9819 9.08439 17.1473 9.20857 17.3371 9.27961C17.527 9.35065 17.7333 9.36555 17.9314 9.32253ZM18.1354 10.6847C17.9126 10.7711 17.7119 10.9062 17.5481 11.0801C17.3842 11.254 17.2614 11.4624 17.1884 11.69C17.3765 11.8109 17.5923 11.8817 17.8154 11.8957C18.0385 11.9098 18.2615 11.8665 18.4632 11.7701C18.686 11.6837 18.8867 11.5486 19.0505 11.3747C19.2144 11.2008 19.3373 10.9924 19.4102 10.7648C19.223 10.6419 19.0069 10.5699 18.7834 10.5558C18.5599 10.5418 18.3365 10.5862 18.1354 10.6847ZM16.0521 10.845C16.1231 11.0474 16.2522 11.2244 16.4232 11.3539C16.5942 11.4834 16.7995 11.5598 17.0136 11.5734C17.1479 11.393 17.235 11.1818 17.2668 10.9592C17.2986 10.7365 17.2742 10.5094 17.1957 10.2986C17.1233 10.0957 16.9929 9.91842 16.8207 9.78892C16.6485 9.65942 16.442 9.58336 16.2269 9.5702C16.0919 9.75036 16.0051 9.96192 15.9745 10.1849C15.9439 10.408 15.9706 10.6351 16.0521 10.845ZM16.8606 12.6224C16.6286 12.6824 16.4128 12.7933 16.2288 12.947C16.0449 13.1007 15.8974 13.2934 15.7971 13.511C15.9612 13.659 16.1621 13.7601 16.3787 13.8036C16.5953 13.8472 16.8196 13.8317 17.0282 13.7587C17.2609 13.7004 17.4777 13.5911 17.6629 13.4386C17.8481 13.2862 17.997 13.0944 18.099 12.8773C17.9337 12.7288 17.7319 12.627 17.5143 12.5822C17.2967 12.5374 17.0711 12.5512 16.8606 12.6224ZM15.1852 11.2456C15.0276 11.4106 14.9132 11.6119 14.8522 11.8318C14.7912 12.0517 14.7855 12.2832 14.8356 12.5058C14.8765 12.7142 14.9777 12.9061 15.1266 13.0576C15.2755 13.2091 15.4656 13.3136 15.6733 13.3581C15.8259 13.1913 15.9376 12.9912 15.9996 12.7737C16.0616 12.5563 16.072 12.3274 16.0302 12.1052C15.9901 11.8944 15.8884 11.7003 15.738 11.5473C15.5876 11.3943 15.3953 11.2893 15.1852 11.2456ZM15.076 14.4143C14.8182 14.3935 14.5591 14.4327 14.319 14.5287C14.0789 14.6248 13.8643 14.7751 13.6919 14.9679C13.7767 15.1912 13.9257 15.3844 14.1202 15.5232C14.3147 15.6619 14.5458 15.7399 14.7846 15.7474C15.043 15.7673 15.3024 15.727 15.5426 15.6296C15.7827 15.5323 15.997 15.3806 16.1686 15.1865C16.0819 14.965 15.9322 14.7739 15.738 14.6367C15.5438 14.4994 15.3136 14.4221 15.076 14.4143ZM13.1383 13.4819C13.0882 13.7152 13.1062 13.9581 13.1902 14.1815C13.2741 14.4049 13.4205 14.5995 13.6118 14.7421C13.8384 14.611 14.0323 14.4301 14.1787 14.213C14.3251 13.996 14.4202 13.7484 14.4568 13.4892C14.5051 13.2559 14.4862 13.0136 14.4024 12.7906C14.3186 12.5675 14.1733 12.3728 13.9833 12.229C13.7567 12.3601 13.5628 12.541 13.4164 12.7581C13.27 12.9751 13.1749 13.2227 13.1383 13.4819ZM12.745 15.6381C12.4622 15.6144 12.1777 15.6575 11.9146 15.7637C11.6514 15.87 11.4169 16.0366 11.2298 16.25C11.326 16.4906 11.4902 16.698 11.7023 16.8468C11.9145 16.9956 12.1655 17.0793 12.4245 17.0877C12.7081 17.1091 12.9929 17.065 13.2569 16.9589C13.5209 16.8529 13.7569 16.6876 13.9469 16.4758C13.8502 16.234 13.6849 16.0259 13.4713 15.877C13.2577 15.7282 13.0052 15.6451 12.745 15.6381ZM12.0675 14.6256C12.1236 14.3696 12.1046 14.1028 12.0129 13.8573C11.9211 13.6118 11.7605 13.398 11.5503 13.2415C11.3002 13.3829 11.0861 13.58 10.9244 13.8175C10.7627 14.055 10.6578 14.3265 10.6179 14.611C10.5658 14.8681 10.5865 15.1346 10.6779 15.3805C10.7693 15.6263 10.9277 15.8417 11.1351 16.0023C11.3847 15.8584 11.5983 15.6598 11.7598 15.4213C11.9213 15.1828 12.0266 14.9107 12.0675 14.6256ZM2.29188 4.95918C2.3131 4.77641 2.29047 4.59122 2.22586 4.41894C2.16126 4.24666 2.05654 4.09226 1.92038 3.96851C1.75888 4.01656 1.61525 4.11141 1.50764 4.24106C1.40002 4.37072 1.33326 4.52936 1.31577 4.69694C1.29333 4.87979 1.31539 5.06534 1.38007 5.23783C1.44475 5.41031 1.55014 5.56462 1.68728 5.68762C1.84829 5.63872 1.99142 5.54362 2.09889 5.41413C2.20637 5.28464 2.27347 5.12645 2.29188 4.95918ZM1.67271 7.12264C1.6886 6.92953 1.65786 6.73543 1.58306 6.55669C1.50827 6.37794 1.39162 6.21979 1.24293 6.09555C1.10737 5.95746 0.940826 5.8537 0.757126 5.79289C0.573426 5.73208 0.377869 5.71597 0.186693 5.7459C0.170798 5.93901 0.201543 6.13311 0.276337 6.31185C0.351131 6.4906 0.467784 6.64875 0.616471 6.77299C0.751318 6.91208 0.917786 7.01651 1.1017 7.07739C1.2856 7.13827 1.4815 7.1538 1.67271 7.12264ZM1.85482 7.08622C2.0281 7.14589 2.21426 7.15777 2.39372 7.12059C2.57318 7.08342 2.73931 6.99857 2.87463 6.87497C3.0085 6.75363 3.10548 6.59701 3.15444 6.42308C3.2034 6.24915 3.20235 6.06495 3.15144 5.89158C2.97936 5.83174 2.79426 5.81978 2.61592 5.85699C2.43757 5.8942 2.2727 5.97917 2.13891 6.10283C2.00516 6.22438 1.90778 6.38067 1.85762 6.5543C1.80746 6.72793 1.80649 6.91207 1.85482 7.08622ZM2.48856 9.40266C2.47083 9.18897 2.40369 8.98234 2.29245 8.79904C2.1812 8.61574 2.02889 8.46079 1.84753 8.34642C1.68148 8.21775 1.48635 8.13185 1.2793 8.09628C1.07226 8.06072 0.859653 8.07657 0.660177 8.14246C0.680603 8.35443 0.748918 8.559 0.859965 8.74071C0.971011 8.92242 1.12189 9.07653 1.3012 9.19141C1.46748 9.31962 1.66227 9.40578 1.86899 9.44255C2.07571 9.47933 2.28826 9.46565 2.48856 9.40266ZM2.67795 9.32253C2.87606 9.36555 3.08237 9.35065 3.27225 9.27961C3.46212 9.20857 3.62754 9.08439 3.74875 8.92188C3.86881 8.76353 3.94371 8.5756 3.96552 8.37808C3.98732 8.18056 3.95521 7.98082 3.87259 7.80009C3.67887 7.76295 3.47862 7.78079 3.29452 7.8516C3.11042 7.9224 2.94982 8.04335 2.83092 8.20073C2.70613 8.35628 2.62597 8.54284 2.59902 8.74044C2.57208 8.93803 2.59936 9.13924 2.67795 9.32253ZM3.42096 11.69C3.34804 11.4624 3.22516 11.254 3.06131 11.0801C2.89746 10.9062 2.69679 10.7711 2.47399 10.6847C2.27285 10.5862 2.04951 10.5418 1.82599 10.5558C1.60246 10.5699 1.38644 10.6419 1.19922 10.7648C1.27214 10.9924 1.39502 11.2008 1.55887 11.3747C1.72272 11.5486 1.92339 11.6837 2.14619 11.7701C2.34788 11.8665 2.57088 11.9098 2.79399 11.8957C3.01711 11.8817 3.23293 11.8109 3.42096 11.69ZM3.41367 10.2841C3.33524 10.4949 3.31081 10.7219 3.34262 10.9446C3.37442 11.1673 3.46146 11.3784 3.59578 11.5588C3.80986 11.5452 4.0152 11.4689 4.18619 11.3393C4.35717 11.2098 4.48625 11.0328 4.55732 10.8304C4.6388 10.6205 4.66551 10.3934 4.63493 10.1704C4.60434 9.94735 4.51747 9.73579 4.3825 9.55563C4.16741 9.5688 3.96093 9.64485 3.78869 9.77435C3.61646 9.90385 3.48605 10.0811 3.41367 10.2841ZM3.74875 12.6224C3.53827 12.5512 3.31267 12.5374 3.09507 12.5822C2.87746 12.627 2.67568 12.7288 2.51041 12.8773C2.61235 13.0944 2.76132 13.2862 2.94653 13.4386C3.13173 13.5911 3.34853 13.7004 3.58121 13.7587C3.78975 13.8317 4.01409 13.8472 4.2307 13.8036C4.4473 13.7601 4.64819 13.659 4.81227 13.511C4.71195 13.2934 4.56448 13.1007 4.38055 12.947C4.19661 12.7933 3.98081 12.6824 3.74875 12.6224ZM4.93611 13.3581C5.14382 13.3136 5.33391 13.2091 5.48282 13.0576C5.63173 12.9061 5.7329 12.7142 5.77381 12.5058C5.82393 12.2832 5.81823 12.0517 5.75722 11.8318C5.69622 11.6119 5.58181 11.4106 5.42416 11.2456C5.21414 11.2893 5.02178 11.3943 4.87138 11.5473C4.72099 11.7003 4.61931 11.8944 4.57917 12.1052C4.53736 12.3274 4.54784 12.5563 4.60979 12.7737C4.67175 12.9912 4.78347 13.1913 4.93611 13.3581ZM6.91746 14.9679C6.74514 14.7751 6.53052 14.6248 6.29041 14.5287C6.05029 14.4327 5.7912 14.3935 5.53343 14.4143C5.30069 14.4185 5.07404 14.4893 4.88036 14.6184C4.68669 14.7475 4.53412 14.9295 4.44077 15.1427C4.61238 15.3369 4.82668 15.4886 5.06684 15.5859C5.30699 15.6833 5.56644 15.7235 5.8248 15.7036C6.05856 15.6998 6.28618 15.6282 6.48011 15.4976C6.67403 15.3671 6.82595 15.1831 6.91746 14.9679ZM6.99759 14.7421C7.18894 14.5995 7.3353 14.4049 7.41924 14.1815C7.50318 13.9581 7.52117 13.7152 7.47107 13.4819C7.43851 13.2259 7.34897 12.9805 7.20904 12.7637C7.06911 12.5468 6.88235 12.3641 6.66251 12.229C6.47252 12.3728 6.3272 12.5675 6.24339 12.7906C6.15959 13.0136 6.14073 13.2559 6.18902 13.4892C6.22159 13.7452 6.31113 13.9906 6.45106 14.2074C6.59098 14.4243 6.77774 14.607 6.99759 14.7421ZM6.66251 16.4758C6.85177 16.6889 7.08752 16.8555 7.35152 16.9629C7.61552 17.0703 7.90068 17.1155 8.18494 17.095C8.44394 17.0866 8.69488 17.0028 8.90705 16.8541C9.11922 16.7053 9.28343 16.4979 9.37958 16.2573C9.19251 16.0438 8.95796 15.8773 8.69481 15.771C8.43166 15.6648 8.14724 15.6217 7.86443 15.6454C7.605 15.6518 7.35309 15.7338 7.13958 15.8813C6.92608 16.0288 6.76027 16.2354 6.66251 16.4758ZM9.05907 13.2415C8.84886 13.398 8.68826 13.6118 8.59652 13.8573C8.50479 14.1028 8.48581 14.3696 8.54188 14.6256C8.58285 14.9107 8.68807 15.1828 8.84959 15.4213C9.01112 15.6598 9.22472 15.8584 9.47428 16.0023C9.6817 15.8417 9.84006 15.6263 9.93145 15.3805C10.0229 15.1346 10.0436 14.8681 9.99147 14.611C9.95155 14.3265 9.84669 14.055 9.68501 13.8175C9.52332 13.58 9.30914 13.3829 9.05907 13.2415Z" fill="url(#paint0_linear_103_1108)"/>
<path d="M18.9221 5.6949C19.0593 5.5719 19.1646 5.4176 19.2293 5.24511C19.294 5.07263 19.3161 4.88707 19.2936 4.70423C19.2761 4.53664 19.2094 4.378 19.1018 4.24835C18.9941 4.11869 18.8505 4.02385 18.689 3.97579C18.5539 4.09879 18.4498 4.252 18.3853 4.42291C18.3207 4.59382 18.2975 4.77758 18.3175 4.95918C18.3346 5.12775 18.4011 5.28752 18.5086 5.41842C18.6162 5.54932 18.7601 5.64551 18.9221 5.6949ZM19.3665 6.09555C19.2178 6.21979 19.1011 6.37794 19.0263 6.55669C18.9515 6.73543 18.9208 6.92953 18.9367 7.12264C19.1254 7.1392 19.3154 7.11559 19.4943 7.05336C19.6732 6.99113 19.8368 6.8917 19.9745 6.76161C20.1121 6.63153 20.2206 6.47375 20.2929 6.29867C20.3651 6.1236 20.3994 5.9352 20.3936 5.7459C20.207 5.72072 20.0171 5.7392 19.8389 5.79987C19.6606 5.86055 19.4989 5.96176 19.3665 6.09555ZM18.7546 7.08622C18.8029 6.91207 18.8019 6.72793 18.7518 6.5543C18.7016 6.38067 18.6042 6.22438 18.4705 6.10283C18.3367 5.97917 18.1718 5.8942 17.9935 5.85699C17.8151 5.81978 17.63 5.83174 17.458 5.89158C17.407 6.06495 17.406 6.24915 17.455 6.42308C17.5039 6.59701 17.6009 6.75363 17.7348 6.87497C17.8701 6.99857 18.0362 7.08342 18.2157 7.12059C18.3951 7.15777 18.5813 7.14589 18.7546 7.08622ZM18.7619 8.34642C18.5805 8.46079 18.4282 8.61574 18.3169 8.79904C18.2057 8.98234 18.1386 9.18897 18.1208 9.40266C18.3211 9.46565 18.5337 9.47933 18.7404 9.44255C18.9471 9.40578 19.1419 9.31962 19.3082 9.19141C19.4884 9.07579 19.6399 8.92053 19.751 8.73748C19.862 8.55443 19.9299 8.34842 19.9492 8.13517C19.7492 8.07029 19.5362 8.05563 19.3292 8.09247C19.1221 8.1293 18.9273 8.21652 18.7619 8.34642ZM17.9314 9.32253C18.0141 9.14179 18.0462 8.94206 18.0244 8.74453C18.0026 8.54701 17.9277 8.35909 17.8076 8.20073C17.6887 8.04335 17.5281 7.9224 17.344 7.8516C17.1599 7.78079 16.9597 7.76295 16.7659 7.80009C16.6792 7.97827 16.6422 8.17656 16.6589 8.37402C16.6756 8.57148 16.7453 8.76077 16.8606 8.92188C16.9819 9.08439 17.1473 9.20857 17.3371 9.27961C17.527 9.35065 17.7333 9.36555 17.9314 9.32253ZM18.1354 10.6847C17.9126 10.7711 17.7119 10.9062 17.5481 11.0801C17.3842 11.254 17.2614 11.4624 17.1884 11.69C17.3765 11.8109 17.5923 11.8817 17.8154 11.8957C18.0385 11.9098 18.2615 11.8665 18.4632 11.7701C18.686 11.6837 18.8867 11.5486 19.0505 11.3747C19.2144 11.2008 19.3373 10.9924 19.4102 10.7648C19.223 10.6419 19.0069 10.5699 18.7834 10.5558C18.5599 10.5418 18.3365 10.5862 18.1354 10.6847ZM16.0521 10.845C16.1231 11.0474 16.2522 11.2244 16.4232 11.3539C16.5942 11.4834 16.7995 11.5598 17.0136 11.5734C17.1479 11.393 17.235 11.1818 17.2668 10.9592C17.2986 10.7365 17.2742 10.5094 17.1957 10.2986C17.1233 10.0957 16.9929 9.91842 16.8207 9.78892C16.6485 9.65942 16.442 9.58336 16.2269 9.5702C16.0919 9.75036 16.0051 9.96192 15.9745 10.1849C15.9439 10.408 15.9706 10.6351 16.0521 10.845ZM16.8606 12.6224C16.6286 12.6824 16.4128 12.7933 16.2288 12.947C16.0449 13.1007 15.8974 13.2934 15.7971 13.511C15.9612 13.659 16.1621 13.7601 16.3787 13.8036C16.5953 13.8472 16.8196 13.8317 17.0282 13.7587C17.2609 13.7004 17.4777 13.5911 17.6629 13.4386C17.8481 13.2862 17.997 13.0944 18.099 12.8773C17.9337 12.7288 17.7319 12.627 17.5143 12.5822C17.2967 12.5374 17.0711 12.5512 16.8606 12.6224ZM15.1852 11.2456C15.0276 11.4106 14.9132 11.6119 14.8522 11.8318C14.7912 12.0517 14.7855 12.2832 14.8356 12.5058C14.8765 12.7142 14.9777 12.9061 15.1266 13.0576C15.2755 13.2091 15.4656 13.3136 15.6733 13.3581C15.8259 13.1913 15.9376 12.9912 15.9996 12.7737C16.0616 12.5563 16.072 12.3274 16.0302 12.1052C15.9901 11.8944 15.8884 11.7003 15.738 11.5473C15.5876 11.3943 15.3953 11.2893 15.1852 11.2456ZM15.076 14.4143C14.8182 14.3935 14.5591 14.4327 14.319 14.5287C14.0789 14.6248 13.8643 14.7751 13.6919 14.9679C13.7767 15.1912 13.9257 15.3844 14.1202 15.5232C14.3147 15.6619 14.5458 15.7399 14.7846 15.7474C15.043 15.7673 15.3024 15.727 15.5426 15.6296C15.7827 15.5323 15.997 15.3806 16.1686 15.1865C16.0819 14.965 15.9322 14.7739 15.738 14.6367C15.5438 14.4994 15.3136 14.4221 15.076 14.4143ZM13.1383 13.4819C13.0882 13.7152 13.1062 13.9581 13.1902 14.1815C13.2741 14.4049 13.4205 14.5995 13.6118 14.7421C13.8384 14.611 14.0323 14.4301 14.1787 14.213C14.3251 13.996 14.4202 13.7484 14.4568 13.4892C14.5051 13.2559 14.4862 13.0136 14.4024 12.7906C14.3186 12.5675 14.1733 12.3728 13.9833 12.229C13.7567 12.3601 13.5628 12.541 13.4164 12.7581C13.27 12.9751 13.1749 13.2227 13.1383 13.4819ZM12.745 15.6381C12.4622 15.6144 12.1777 15.6575 11.9146 15.7637C11.6514 15.87 11.4169 16.0366 11.2298 16.25C11.326 16.4906 11.4902 16.698 11.7023 16.8468C11.9145 16.9956 12.1655 17.0793 12.4245 17.0877C12.7081 17.1091 12.9929 17.065 13.2569 16.9589C13.5209 16.8529 13.7569 16.6876 13.9469 16.4758C13.8502 16.234 13.6849 16.0259 13.4713 15.877C13.2577 15.7282 13.0052 15.6451 12.745 15.6381ZM12.0675 14.6256C12.1236 14.3696 12.1046 14.1028 12.0129 13.8573C11.9211 13.6118 11.7605 13.398 11.5503 13.2415C11.3002 13.3829 11.0861 13.58 10.9244 13.8175C10.7627 14.055 10.6578 14.3265 10.6179 14.611C10.5658 14.8681 10.5865 15.1346 10.6779 15.3805C10.7693 15.6263 10.9277 15.8417 11.1351 16.0023C11.3847 15.8584 11.5983 15.6598 11.7598 15.4213C11.9213 15.1828 12.0266 14.9107 12.0675 14.6256ZM2.29188 4.95918C2.3131 4.77641 2.29047 4.59122 2.22586 4.41894C2.16126 4.24666 2.05654 4.09226 1.92038 3.96851C1.75888 4.01656 1.61525 4.11141 1.50764 4.24106C1.40002 4.37072 1.33326 4.52936 1.31577 4.69694C1.29333 4.87979 1.31539 5.06534 1.38007 5.23783C1.44475 5.41031 1.55014 5.56462 1.68728 5.68762C1.84829 5.63872 1.99142 5.54362 2.09889 5.41413C2.20637 5.28464 2.27347 5.12645 2.29188 4.95918ZM1.67271 7.12264C1.6886 6.92953 1.65786 6.73543 1.58306 6.55669C1.50827 6.37794 1.39162 6.21979 1.24293 6.09555C1.10737 5.95746 0.940826 5.8537 0.757126 5.79289C0.573426 5.73208 0.377869 5.71597 0.186693 5.7459C0.170798 5.93901 0.201543 6.13311 0.276337 6.31185C0.351131 6.4906 0.467784 6.64875 0.616471 6.77299C0.751318 6.91208 0.917786 7.01651 1.1017 7.07739C1.2856 7.13827 1.4815 7.1538 1.67271 7.12264ZM1.85482 7.08622C2.0281 7.14589 2.21426 7.15777 2.39372 7.12059C2.57318 7.08342 2.73931 6.99857 2.87463 6.87497C3.0085 6.75363 3.10548 6.59701 3.15444 6.42308C3.2034 6.24915 3.20235 6.06495 3.15144 5.89158C2.97936 5.83174 2.79426 5.81978 2.61592 5.85699C2.43757 5.8942 2.2727 5.97917 2.13891 6.10283C2.00516 6.22438 1.90778 6.38067 1.85762 6.5543C1.80746 6.72793 1.80649 6.91207 1.85482 7.08622ZM2.48856 9.40266C2.47083 9.18897 2.40369 8.98234 2.29245 8.79904C2.1812 8.61574 2.02889 8.46079 1.84753 8.34642C1.68148 8.21775 1.48635 8.13185 1.2793 8.09628C1.07226 8.06072 0.859653 8.07657 0.660177 8.14246C0.680603 8.35443 0.748918 8.559 0.859965 8.74071C0.971011 8.92242 1.12189 9.07653 1.3012 9.19141C1.46748 9.31962 1.66227 9.40578 1.86899 9.44255C2.07571 9.47933 2.28826 9.46565 2.48856 9.40266ZM2.67795 9.32253C2.87606 9.36555 3.08237 9.35065 3.27225 9.27961C3.46212 9.20857 3.62754 9.08439 3.74875 8.92188C3.86881 8.76353 3.94371 8.5756 3.96552 8.37808C3.98732 8.18056 3.95521 7.98082 3.87259 7.80009C3.67887 7.76295 3.47862 7.78079 3.29452 7.8516C3.11042 7.9224 2.94982 8.04335 2.83092 8.20073C2.70613 8.35628 2.62597 8.54284 2.59902 8.74044C2.57208 8.93803 2.59936 9.13924 2.67795 9.32253ZM3.42096 11.69C3.34804 11.4624 3.22516 11.254 3.06131 11.0801C2.89746 10.9062 2.69679 10.7711 2.47399 10.6847C2.27285 10.5862 2.04951 10.5418 1.82599 10.5558C1.60246 10.5699 1.38644 10.6419 1.19922 10.7648C1.27214 10.9924 1.39502 11.2008 1.55887 11.3747C1.72272 11.5486 1.92339 11.6837 2.14619 11.7701C2.34788 11.8665 2.57088 11.9098 2.79399 11.8957C3.01711 11.8817 3.23293 11.8109 3.42096 11.69ZM3.41367 10.2841C3.33524 10.4949 3.31081 10.7219 3.34262 10.9446C3.37442 11.1673 3.46146 11.3784 3.59578 11.5588C3.80986 11.5452 4.0152 11.4689 4.18619 11.3393C4.35717 11.2098 4.48625 11.0328 4.55732 10.8304C4.6388 10.6205 4.66551 10.3934 4.63493 10.1704C4.60434 9.94735 4.51747 9.73579 4.3825 9.55563C4.16741 9.5688 3.96093 9.64485 3.78869 9.77435C3.61646 9.90385 3.48605 10.0811 3.41367 10.2841ZM3.74875 12.6224C3.53827 12.5512 3.31267 12.5374 3.09507 12.5822C2.87746 12.627 2.67568 12.7288 2.51041 12.8773C2.61235 13.0944 2.76132 13.2862 2.94653 13.4386C3.13173 13.5911 3.34853 13.7004 3.58121 13.7587C3.78975 13.8317 4.01409 13.8472 4.2307 13.8036C4.4473 13.7601 4.64819 13.659 4.81227 13.511C4.71195 13.2934 4.56448 13.1007 4.38055 12.947C4.19661 12.7933 3.98081 12.6824 3.74875 12.6224ZM4.93611 13.3581C5.14382 13.3136 5.33391 13.2091 5.48282 13.0576C5.63173 12.9061 5.7329 12.7142 5.77381 12.5058C5.82393 12.2832 5.81823 12.0517 5.75722 11.8318C5.69622 11.6119 5.58181 11.4106 5.42416 11.2456C5.21414 11.2893 5.02178 11.3943 4.87138 11.5473C4.72099 11.7003 4.61931 11.8944 4.57917 12.1052C4.53736 12.3274 4.54784 12.5563 4.60979 12.7737C4.67175 12.9912 4.78347 13.1913 4.93611 13.3581ZM6.91746 14.9679C6.74514 14.7751 6.53052 14.6248 6.29041 14.5287C6.05029 14.4327 5.7912 14.3935 5.53343 14.4143C5.30069 14.4185 5.07404 14.4893 4.88036 14.6184C4.68669 14.7475 4.53412 14.9295 4.44077 15.1427C4.61238 15.3369 4.82668 15.4886 5.06684 15.5859C5.30699 15.6833 5.56644 15.7235 5.8248 15.7036C6.05856 15.6998 6.28618 15.6282 6.48011 15.4976C6.67403 15.3671 6.82595 15.1831 6.91746 14.9679ZM6.99759 14.7421C7.18894 14.5995 7.3353 14.4049 7.41924 14.1815C7.50318 13.9581 7.52117 13.7152 7.47107 13.4819C7.43851 13.2259 7.34897 12.9805 7.20904 12.7637C7.06911 12.5468 6.88235 12.3641 6.66251 12.229C6.47252 12.3728 6.3272 12.5675 6.24339 12.7906C6.15959 13.0136 6.14073 13.2559 6.18902 13.4892C6.22159 13.7452 6.31113 13.9906 6.45106 14.2074C6.59098 14.4243 6.77774 14.607 6.99759 14.7421ZM6.66251 16.4758C6.85177 16.6889 7.08752 16.8555 7.35152 16.9629C7.61552 17.0703 7.90068 17.1155 8.18494 17.095C8.44394 17.0866 8.69488 17.0028 8.90705 16.8541C9.11922 16.7053 9.28343 16.4979 9.37958 16.2573C9.19251 16.0438 8.95796 15.8773 8.69481 15.771C8.43166 15.6648 8.14724 15.6217 7.86443 15.6454C7.605 15.6518 7.35309 15.7338 7.13958 15.8813C6.92608 16.0288 6.76027 16.2354 6.66251 16.4758ZM9.05907 13.2415C8.84886 13.398 8.68826 13.6118 8.59652 13.8573C8.50479 14.1028 8.48581 14.3696 8.54188 14.6256C8.58285 14.9107 8.68807 15.1828 8.84959 15.4213C9.01112 15.6598 9.22472 15.8584 9.47428 16.0023C9.6817 15.8417 9.84006 15.6263 9.93145 15.3805C10.0229 15.1346 10.0436 14.8681 9.99147 14.611C9.95155 14.3265 9.84669 14.055 9.68501 13.8175C9.52332 13.58 9.30914 13.3829 9.05907 13.2415Z" fill="url(#paint1_linear_103_1108)" fill-opacity="0.28"/>
<path d="M11.7988 3.82634L10.3041 0.793213L8.80932 3.82634L5.4707 4.3064L7.89284 6.66308L7.31458 9.99079L10.3041 8.41967L13.2936 9.99079L12.7153 6.66308L15.1374 4.3064L11.7988 3.82634Z" fill="#121212"/>
<path d="M11.7988 3.82634L10.3041 0.793213L8.80932 3.82634L5.4707 4.3064L7.89284 6.66308L7.31458 9.99079L10.3041 8.41967L13.2936 9.99079L12.7153 6.66308L15.1374 4.3064L11.7988 3.82634Z" fill="url(#paint2_linear_103_1108)"/>
<path d="M11.7988 3.82634L10.3041 0.793213L8.80932 3.82634L5.4707 4.3064L7.89284 6.66308L7.31458 9.99079L10.3041 8.41967L13.2936 9.99079L12.7153 6.66308L15.1374 4.3064L11.7988 3.82634Z" fill="url(#paint3_linear_103_1108)" fill-opacity="0.28"/>
<defs>
<linearGradient id="paint0_linear_103_1108" x1="17.1674" y1="-2.39623" x2="-2.09437" y2="0.445274" gradientUnits="userSpaceOnUse">
<stop stop-color="#9443FC"/>
<stop offset="0.963542" stop-color="#4358FC"/>
</linearGradient>
<linearGradient id="paint1_linear_103_1108" x1="21.2168" y1="12.6541" x2="-0.00317877" y2="10.2331" gradientUnits="userSpaceOnUse">
<stop stop-color="white" stop-opacity="0"/>
<stop offset="0.432292" stop-color="white"/>
<stop offset="1" stop-color="white" stop-opacity="0"/>
</linearGradient>
<linearGradient id="paint2_linear_103_1108" x1="13.5941" y1="-3.66486" x2="4.27574" y2="-2.72621" gradientUnits="userSpaceOnUse">
<stop stop-color="#9443FC"/>
<stop offset="0.963542" stop-color="#4358FC"/>
</linearGradient>
<linearGradient id="paint3_linear_103_1108" x1="15.5308" y1="6.87687" x2="5.31175" y2="6.08075" gradientUnits="userSpaceOnUse">
<stop stop-color="white" stop-opacity="0"/>
<stop offset="0.432292" stop-color="white"/>
<stop offset="1" stop-color="white" stop-opacity="0"/>
</linearGradient>
</defs>
</svg>
