<svg width="22" height="18" viewBox="0 0 22 18" fill="none" xmlns="http://www.w3.org/2000/svg">
<path d="M20.0843 5.68514C20.2253 5.56214 20.3336 5.40783 20.4001 5.23535C20.4666 5.06286 20.4893 4.8773 20.4662 4.69446C20.4483 4.52688 20.3796 4.36823 20.269 4.23858C20.1583 4.10893 20.0107 4.01408 19.8446 3.96602C19.7057 4.08902 19.5987 4.24223 19.5324 4.41315C19.466 4.58406 19.4421 4.76782 19.4627 4.94942C19.4802 5.11798 19.5486 5.27776 19.6592 5.40866C19.7698 5.53956 19.9177 5.63574 20.0843 5.68514ZM20.5411 6.08578C20.3883 6.21002 20.2683 6.36818 20.1914 6.54692C20.1145 6.72567 20.0829 6.91977 20.0993 7.11288C20.2932 7.12944 20.4886 7.10582 20.6725 7.04359C20.8564 6.98137 21.0247 6.88193 21.1662 6.75185C21.3077 6.62177 21.4193 6.46399 21.4936 6.28891C21.5678 6.11383 21.6031 5.92543 21.5971 5.73613C21.4052 5.71096 21.21 5.72943 21.0268 5.79011C20.8436 5.85078 20.6773 5.95199 20.5411 6.08578ZM19.912 7.07646C19.9617 6.90231 19.9607 6.71816 19.9092 6.54453C19.8576 6.37091 19.7575 6.21461 19.62 6.09306C19.4824 5.96941 19.3129 5.88443 19.1296 5.84722C18.9462 5.81001 18.7559 5.82197 18.579 5.88182C18.5266 6.05518 18.5256 6.23939 18.5759 6.41332C18.6262 6.58724 18.7259 6.74386 18.8636 6.86521C19.0027 6.98881 19.1735 7.07365 19.358 7.11083C19.5425 7.148 19.7339 7.13613 19.912 7.07646ZM19.9195 8.33665C19.7331 8.45103 19.5765 8.60597 19.4621 8.78927C19.3477 8.97257 19.2787 9.17921 19.2605 9.39289C19.4664 9.45588 19.6849 9.46957 19.8975 9.43279C20.11 9.39601 20.3103 9.30985 20.4812 9.18164C20.6665 9.06603 20.8222 8.91077 20.9364 8.72772C21.0506 8.54467 21.1203 8.33866 21.1402 8.12541C20.9346 8.06053 20.7156 8.04586 20.5028 8.0827C20.2899 8.11954 20.0896 8.20675 19.9195 8.33665ZM19.0658 9.31276C19.1507 9.13203 19.1837 8.93229 19.1613 8.73477C19.1389 8.53725 19.0619 8.34933 18.9385 8.19097C18.8162 8.03358 18.6511 7.91264 18.4618 7.84183C18.2726 7.77102 18.0667 7.75318 17.8675 7.79032C17.7784 7.9685 17.7404 8.1668 17.7575 8.36425C17.7746 8.56172 17.8463 8.751 17.9649 8.91212C18.0895 9.07462 18.2596 9.19881 18.4548 9.26985C18.65 9.34089 18.8621 9.35579 19.0658 9.31276ZM19.2755 10.6749C19.0464 10.7613 18.8401 10.8964 18.6717 11.0703C18.5032 11.2443 18.3769 11.4526 18.3019 11.6802C18.4952 11.8011 18.7171 11.8719 18.9465 11.886C19.1759 11.9 19.4051 11.8567 19.6125 11.7603C19.8415 11.674 20.0479 11.5389 20.2163 11.3649C20.3848 11.191 20.5111 10.9826 20.5861 10.7551C20.3936 10.6321 20.1715 10.5601 19.9417 10.5461C19.7119 10.532 19.4823 10.5764 19.2755 10.6749ZM17.1336 10.8352C17.2067 11.0376 17.3394 11.2146 17.5152 11.3441C17.691 11.4737 17.9021 11.55 18.1222 11.5636C18.2603 11.3832 18.3497 11.1721 18.3824 10.9494C18.4151 10.7267 18.39 10.4997 18.3094 10.2889C18.235 10.0859 18.1009 9.90866 17.9238 9.77916C17.7468 9.64965 17.5345 9.5736 17.3134 9.56043C17.1746 9.74059 17.0853 9.95216 17.0538 10.1752C17.0224 10.3982 17.0498 10.6253 17.1336 10.8352ZM17.9649 12.6126C17.7263 12.6726 17.5045 12.7835 17.3154 12.9372C17.1263 13.0909 16.9746 13.2836 16.8715 13.5013C17.0402 13.6492 17.2467 13.7503 17.4694 13.7939C17.6921 13.8375 17.9227 13.8219 18.1371 13.7489C18.3764 13.6906 18.5993 13.5813 18.7897 13.4289C18.9801 13.2764 19.1332 13.0847 19.238 12.8675C19.0681 12.7191 18.8607 12.6172 18.637 12.5724C18.4132 12.5276 18.1813 12.5415 17.9649 12.6126ZM16.2424 11.2358C16.0804 11.4008 15.9627 11.6022 15.9 11.822C15.8373 12.0419 15.8314 12.2734 15.883 12.496C15.925 12.7045 16.029 12.8963 16.1821 13.0478C16.3352 13.1993 16.5306 13.3038 16.7442 13.3483C16.9011 13.1815 17.016 12.9814 17.0797 12.764C17.1434 12.5465 17.1541 12.3176 17.1112 12.0954C17.0699 11.8847 16.9654 11.6905 16.8107 11.5375C16.6561 11.3846 16.4584 11.2796 16.2424 11.2358ZM16.1301 14.4045C15.8651 14.3837 15.5987 14.4229 15.3518 14.5189C15.105 14.615 14.8843 14.7653 14.7072 14.9582C14.7943 15.1815 14.9475 15.3747 15.1475 15.5134C15.3474 15.6521 15.5851 15.7301 15.8305 15.7376C16.0961 15.7575 16.3629 15.7172 16.6098 15.6199C16.8567 15.5225 17.077 15.3708 17.2534 15.1767C17.1643 14.9553 17.0104 14.7641 16.8107 14.6269C16.6111 14.4897 16.3744 14.4124 16.1301 14.4045ZM14.138 13.4721C14.0865 13.7055 14.105 13.9483 14.1913 14.1717C14.2776 14.3951 14.4281 14.5897 14.6248 14.7323C14.8578 14.6012 15.0571 14.4203 15.2076 14.2033C15.3581 13.9862 15.4559 13.7387 15.4935 13.4794C15.5432 13.2461 15.5238 13.0039 15.4376 12.7808C15.3515 12.5578 15.2021 12.363 15.0067 12.2192C14.7737 12.3503 14.5744 12.5313 14.4239 12.7483C14.2734 12.9654 14.1757 13.2129 14.138 13.4721ZM13.7336 15.6283C13.4428 15.6047 13.1504 15.6477 12.8799 15.754C12.6094 15.8602 12.3682 16.0268 12.1759 16.2402C12.2747 16.4808 12.4436 16.6882 12.6617 16.837C12.8798 16.9858 13.1378 17.0695 13.4041 17.0779C13.6957 17.0993 13.9885 17.0553 14.2599 16.9492C14.5313 16.8431 14.774 16.6778 14.9693 16.466C14.8699 16.2243 14.7 16.0161 14.4804 15.8673C14.2608 15.7184 14.0012 15.6353 13.7336 15.6283ZM13.0371 14.6158C13.0948 14.3598 13.0753 14.093 12.9809 13.8476C12.8866 13.6021 12.7215 13.3883 12.5054 13.2318C12.2483 13.3732 12.0281 13.5703 11.8619 13.8077C11.6957 14.0452 11.5879 14.3167 11.5468 14.6012C11.4932 14.8583 11.5145 15.1248 11.6085 15.3707C11.7025 15.6166 11.8653 15.832 12.0785 15.9925C12.3351 15.8487 12.5547 15.65 12.7208 15.4115C12.8868 15.173 12.995 14.9009 13.0371 14.6158ZM2.98687 4.94942C3.00869 4.76665 2.98542 4.58146 2.919 4.40918C2.85258 4.2369 2.74492 4.08249 2.60493 3.95874C2.4389 4.0068 2.29124 4.10164 2.1806 4.2313C2.06996 4.36095 2.00132 4.51959 1.98335 4.68718C1.96027 4.87002 1.98295 5.05558 2.04945 5.22806C2.11595 5.40055 2.2243 5.55485 2.36529 5.67785C2.53083 5.62895 2.67797 5.53386 2.78847 5.40437C2.89896 5.27488 2.96795 5.11669 2.98687 4.94942ZM2.35031 7.11288C2.36665 6.91977 2.33504 6.72567 2.25815 6.54692C2.18125 6.36818 2.06132 6.21002 1.90846 6.08578C1.76909 5.94769 1.59787 5.84394 1.40901 5.78313C1.22015 5.72231 1.0191 5.7062 0.822549 5.73613C0.806208 5.92924 0.837817 6.12334 0.914712 6.30209C0.991607 6.48083 1.11154 6.63899 1.2644 6.76323C1.40304 6.90232 1.57418 7.00675 1.76326 7.06763C1.95233 7.12851 2.15373 7.14403 2.35031 7.11288ZM2.53753 7.07646C2.71568 7.13613 2.90708 7.148 3.09158 7.11083C3.27608 7.07365 3.44687 6.98881 3.58599 6.86521C3.72363 6.74386 3.82333 6.58724 3.87366 6.41332C3.924 6.23939 3.92293 6.05518 3.87058 5.88182C3.69367 5.82197 3.50337 5.81001 3.32001 5.84722C3.13666 5.88443 2.96715 5.96941 2.8296 6.09306C2.6921 6.21461 2.59198 6.37091 2.54041 6.54453C2.48885 6.71816 2.48785 6.90231 2.53753 7.07646ZM3.18908 9.39289C3.17085 9.17921 3.10183 8.97257 2.98746 8.78927C2.87309 8.60597 2.7165 8.45103 2.53004 8.33665C2.35932 8.20798 2.15871 8.12208 1.94585 8.08652C1.733 8.05095 1.51441 8.06681 1.30934 8.13269C1.33033 8.34467 1.40057 8.54923 1.51473 8.73094C1.6289 8.91266 1.78401 9.06677 1.96837 9.18164C2.13932 9.30985 2.33957 9.39601 2.5521 9.43279C2.76463 9.46957 2.98315 9.45588 3.18908 9.39289ZM3.38379 9.31276C3.58747 9.35579 3.79957 9.34089 3.99478 9.26985C4.18999 9.19881 4.36006 9.07462 4.48468 8.91212C4.6081 8.75376 4.68511 8.56584 4.70753 8.36832C4.72994 8.17079 4.69693 7.97106 4.61199 7.79032C4.41283 7.75318 4.20695 7.77102 4.01768 7.84183C3.82841 7.91264 3.6633 8.03358 3.54106 8.19097C3.41276 8.34652 3.33035 8.53307 3.30264 8.73067C3.27494 8.92827 3.30299 9.12947 3.38379 9.31276ZM4.14767 11.6802C4.07271 11.4526 3.94638 11.2443 3.77792 11.0703C3.60947 10.8964 3.40316 10.7613 3.1741 10.6749C2.96731 10.5764 2.7377 10.532 2.50789 10.5461C2.27808 10.5601 2.056 10.6321 1.86352 10.7551C1.93848 10.9826 2.06482 11.191 2.23327 11.3649C2.40172 11.5389 2.60803 11.674 2.83709 11.7603C3.04445 11.8567 3.27371 11.9 3.50309 11.886C3.73247 11.8719 3.95436 11.8011 4.14767 11.6802ZM4.14018 10.2743C4.05954 10.4851 4.03443 10.7122 4.06713 10.9348C4.09983 11.1575 4.18931 11.3687 4.32741 11.5491C4.5475 11.5354 4.75861 11.4591 4.9344 11.3296C5.11019 11.2 5.24289 11.023 5.31596 10.8206C5.39973 10.6108 5.42719 10.3836 5.39574 10.1606C5.3643 9.93759 5.27498 9.72602 5.13622 9.54586C4.91509 9.55903 4.70281 9.63509 4.52574 9.76459C4.34866 9.89409 4.21459 10.0713 4.14018 10.2743ZM4.48468 12.6126C4.26828 12.5415 4.03634 12.5276 3.81262 12.5724C3.58891 12.6172 3.38146 12.7191 3.21154 12.8675C3.31635 13.0847 3.4695 13.2764 3.65991 13.4289C3.85032 13.5813 4.07321 13.6906 4.31243 13.7489C4.52683 13.8219 4.75747 13.8375 4.98016 13.7939C5.20285 13.7503 5.40937 13.6492 5.57807 13.5013C5.47493 13.2836 5.32332 13.0909 5.13422 12.9372C4.94511 12.7835 4.72325 12.6726 4.48468 12.6126ZM5.70539 13.3483C5.91893 13.3038 6.11436 13.1993 6.26745 13.0478C6.42054 12.8963 6.52456 12.7045 6.56662 12.496C6.61814 12.2734 6.61228 12.0419 6.54957 11.822C6.48685 11.6022 6.36922 11.4008 6.20715 11.2358C5.99122 11.2796 5.79346 11.3846 5.63884 11.5375C5.48422 11.6905 5.37968 11.8847 5.33842 12.0954C5.29543 12.3176 5.30621 12.5465 5.3699 12.764C5.4336 12.9814 5.54845 13.1815 5.70539 13.3483ZM7.7424 14.9582C7.56524 14.7653 7.34459 14.615 7.09773 14.5189C6.85087 14.4229 6.5845 14.3837 6.31948 14.4045C6.08021 14.4087 5.84719 14.4795 5.64807 14.6087C5.44896 14.7378 5.2921 14.9197 5.19613 15.133C5.37256 15.3271 5.59289 15.4788 5.83979 15.5762C6.08668 15.6735 6.35343 15.7138 6.61904 15.6939C6.85937 15.69 7.09338 15.6184 7.29276 15.4879C7.49213 15.3573 7.64831 15.1733 7.7424 14.9582ZM7.82478 14.7323C8.0215 14.5897 8.17197 14.3951 8.25827 14.1717C8.34457 13.9483 8.36306 13.7055 8.31156 13.4721C8.27808 13.2161 8.18603 12.9707 8.04217 12.7539C7.89831 12.5371 7.7063 12.3544 7.48028 12.2192C7.28496 12.363 7.13555 12.5578 7.04939 12.7808C6.96323 13.0039 6.94385 13.2461 6.9935 13.4794C7.02698 13.7354 7.11903 13.9809 7.26289 14.1977C7.40675 14.4145 7.59875 14.5972 7.82478 14.7323ZM7.48028 16.466C7.67486 16.6791 7.91723 16.8458 8.18865 16.9531C8.46006 17.0605 8.75324 17.1057 9.04548 17.0852C9.31176 17.0768 9.56974 16.9931 9.78788 16.8443C10.006 16.6955 10.1748 16.4881 10.2737 16.2475C10.0814 16.0341 9.84022 15.8675 9.56968 15.7613C9.29913 15.655 9.00673 15.6119 8.71597 15.6356C8.44925 15.642 8.19026 15.724 7.97076 15.8715C7.75126 16.019 7.58079 16.2256 7.48028 16.466ZM9.94417 13.2318C9.72805 13.3883 9.56294 13.6021 9.46863 13.8476C9.37431 14.093 9.35481 14.3598 9.41245 14.6158C9.45457 14.9009 9.56274 15.173 9.7288 15.4115C9.89487 15.65 10.1145 15.8487 10.371 15.9925C10.5843 15.832 10.7471 15.6166 10.8411 15.3707C10.935 15.1248 10.9564 14.8583 10.9028 14.6012C10.8617 14.3167 10.7539 14.0452 10.5877 13.8077C10.4215 13.5703 10.2013 13.3732 9.94417 13.2318Z" fill="url(#paint0_linear_254_126)"/>
<path d="M12.7608 3.81657L11.224 0.783447L9.68729 3.81657L6.25488 4.29664L8.74506 6.65331L8.15056 9.98102L11.224 8.40991L14.2975 9.98102L13.703 6.65331L16.1932 4.29664L12.7608 3.81657Z" fill="url(#paint1_linear_254_126)"/>
<defs>
<linearGradient id="paint0_linear_254_126" x1="18.2803" y1="-1.52529" x2="-1.37513" y2="1.84651" gradientUnits="userSpaceOnUse">
<stop stop-color="#E7C363"/>
<stop offset="0.963542" stop-color="#E7C363"/>
</linearGradient>
<linearGradient id="paint1_linear_254_126" x1="14.6065" y1="-3.05775" x2="5.06013" y2="-1.93952" gradientUnits="userSpaceOnUse">
<stop stop-color="#E7C363"/>
<stop offset="0.963542" stop-color="#E7C363"/>
</linearGradient>
</defs>
</svg>
