<svg width="320" height="82" viewBox="0 0 320 82" fill="none" xmlns="http://www.w3.org/2000/svg">
<path d="M13.8428 0.539008C169.305 -0.201668 150.896 0.626945 306.358 1.36762C311.5 1.39267 316.409 5.31163 317.096 10.1184C320.066 31.0103 320.066 51.9022 317.096 72.795C316.409 77.6018 311.5 81.5203 306.358 81.5454C150.896 82.2861 169.305 81.4574 13.8428 80.7167C8.70071 80.6917 3.79167 76.7732 3.10553 71.9664C0.134094 51.0736 0.134094 30.1817 3.10553 9.28981C3.79167 4.48302 8.70071 0.564055 13.8428 0.539008Z" fill="#121212"/>
<path d="M13.8428 0.539008C169.305 -0.201668 150.896 0.626945 306.358 1.36762C311.5 1.39267 316.409 5.31163 317.096 10.1184C320.066 31.0103 320.066 51.9022 317.096 72.795C316.409 77.6018 311.5 81.5203 306.358 81.5454C150.896 82.2861 169.305 81.4574 13.8428 80.7167C8.70071 80.6917 3.79167 76.7732 3.10553 71.9664C0.134094 51.0736 0.134094 30.1817 3.10553 9.28981C3.79167 4.48302 8.70071 0.564055 13.8428 0.539008Z" fill="url(#paint0_linear_103_1068)"/>
<path d="M13.8428 0.539008C169.305 -0.201668 150.896 0.626945 306.358 1.36762C311.5 1.39267 316.409 5.31163 317.096 10.1184C320.066 31.0103 320.066 51.9022 317.096 72.795C316.409 77.6018 311.5 81.5203 306.358 81.5454C150.896 82.2861 169.305 81.4574 13.8428 80.7167C8.70071 80.6917 3.79167 76.7732 3.10553 71.9664C0.134094 51.0736 0.134094 30.1817 3.10553 9.28981C3.79167 4.48302 8.70071 0.564055 13.8428 0.539008Z" fill="url(#paint1_linear_103_1068)" fill-opacity="0.28"/>
<defs>
<linearGradient id="paint0_linear_103_1068" x1="268.484" y1="-39.295" x2="-3.53463" y2="62.4658" gradientUnits="userSpaceOnUse">
<stop stop-color="#9443FC"/>
<stop offset="0.963542" stop-color="#4358FC"/>
</linearGradient>
<linearGradient id="paint1_linear_103_1068" x1="332.284" y1="54.2135" x2="19.7586" y2="-36.2076" gradientUnits="userSpaceOnUse">
<stop stop-color="white" stop-opacity="0"/>
<stop offset="0.432292" stop-color="white"/>
<stop offset="1" stop-color="white" stop-opacity="0"/>
</linearGradient>
</defs>
</svg>
