<svg width="26" height="26" viewBox="0 0 26 26" fill="none" xmlns="http://www.w3.org/2000/svg">
<g clip-path="url(#clip0_103_1244)">
<path d="M25.1133 13.4453C25.1133 6.54102 19.5176 0.945312 12.6133 0.945312C5.70898 0.945312 0.113281 6.54102 0.113281 13.4453C0.113281 20.3496 5.70898 25.9453 12.6133 25.9453C12.6865 25.9453 12.7598 25.9453 12.833 25.9404V16.2139H10.1475V13.084H12.833V10.7793C12.833 8.1084 14.4639 6.65332 16.8467 6.65332C17.9893 6.65332 18.9707 6.73633 19.2539 6.77539V9.56836H17.6133C16.3193 9.56836 16.0654 10.1836 16.0654 11.0869V13.0791H19.166L18.7607 16.209H16.0654V25.4619C21.29 23.9629 25.1133 19.1533 25.1133 13.4453Z" fill="white"/>
</g>
<defs>
<clipPath id="clip0_103_1244">
<rect width="25" height="25" fill="white" transform="translate(0.113281 0.945312)"/>
</clipPath>
</defs>
</svg>
