<svg width="26" height="26" viewBox="0 0 26 26" fill="none" xmlns="http://www.w3.org/2000/svg">
<g clip-path="url(#clip0_103_1240)">
<path d="M15.0059 13.4453C15.0059 14.7667 13.9347 15.8379 12.6133 15.8379C11.2919 15.8379 10.2207 14.7667 10.2207 13.4453C10.2207 12.1239 11.2919 11.0527 12.6133 11.0527C13.9347 11.0527 15.0059 12.1239 15.0059 13.4453Z" fill="white"/>
<path d="M18.2085 9.21174C18.0935 8.90008 17.91 8.61798 17.6715 8.38643C17.44 8.14801 17.1581 7.96452 16.8462 7.84951C16.5933 7.75128 16.2134 7.63436 15.5136 7.60251C14.7565 7.56799 14.5296 7.56055 12.6131 7.56055C10.6964 7.56055 10.4694 7.56779 9.71256 7.60232C9.01276 7.63436 8.63262 7.75128 8.3799 7.84951C8.06805 7.96452 7.78595 8.14801 7.55459 8.38643C7.31617 8.61798 7.13268 8.89989 7.01748 9.21174C6.91925 9.46465 6.80233 9.84479 6.77048 10.5446C6.73595 11.3014 6.72852 11.5284 6.72852 13.4451C6.72852 15.3616 6.73595 15.5886 6.77048 16.3456C6.80233 17.0454 6.91925 17.4254 7.01748 17.6783C7.13268 17.9901 7.31598 18.272 7.5544 18.5036C7.78595 18.742 8.06786 18.9255 8.37971 19.0405C8.63262 19.1389 9.01276 19.2558 9.71256 19.2877C10.4694 19.3222 10.6962 19.3295 12.6129 19.3295C14.5298 19.3295 14.7567 19.3222 15.5134 19.2877C16.2132 19.2558 16.5933 19.1389 16.8462 19.0405C17.4722 18.799 17.967 18.3043 18.2085 17.6783C18.3067 17.4254 18.4236 17.0454 18.4557 16.3456C18.4902 15.5886 18.4974 15.3616 18.4974 13.4451C18.4974 11.5284 18.4902 11.3014 18.4557 10.5446C18.4238 9.84479 18.3069 9.46465 18.2085 9.21174ZM12.6131 17.1307C10.5774 17.1307 8.92712 15.4806 8.92712 13.4449C8.92712 11.4092 10.5774 9.75915 12.6131 9.75915C14.6486 9.75915 16.2988 11.4092 16.2988 13.4449C16.2988 15.4806 14.6486 17.1307 12.6131 17.1307ZM16.4445 10.4748C15.9689 10.4748 15.5832 10.0891 15.5832 9.61343C15.5832 9.13773 15.9689 8.75207 16.4445 8.75207C16.9202 8.75207 17.3059 9.13773 17.3059 9.61343C17.3057 10.0891 16.9202 10.4748 16.4445 10.4748Z" fill="white"/>
<path d="M12.6133 0.945312C5.71078 0.945312 0.113281 6.54281 0.113281 13.4453C0.113281 20.3478 5.71078 25.9453 12.6133 25.9453C19.5158 25.9453 25.1133 20.3478 25.1133 13.4453C25.1133 6.54281 19.5158 0.945312 12.6133 0.945312ZM19.7477 16.4046C19.713 17.1686 19.5915 17.6903 19.4141 18.1469C19.0412 19.1111 18.2791 19.8733 17.3149 20.2462C16.8585 20.4235 16.3366 20.5448 15.5727 20.5798C14.8073 20.6147 14.5628 20.623 12.6135 20.623C10.664 20.623 10.4196 20.6147 9.65403 20.5798C8.89014 20.5448 8.36829 20.4235 7.91186 20.2462C7.43273 20.0659 6.999 19.7834 6.64042 19.4182C6.27535 19.0598 5.99287 18.6259 5.81263 18.1469C5.63525 17.6905 5.51375 17.1686 5.47903 16.4048C5.44375 15.6391 5.43555 15.3946 5.43555 13.4453C5.43555 11.496 5.44375 11.2515 5.47884 10.4861C5.51356 9.72198 5.63486 9.20032 5.81225 8.7437C5.99249 8.26476 6.27516 7.83084 6.64042 7.47245C6.99881 7.10719 7.43273 6.82471 7.91167 6.64447C8.36829 6.46709 8.88995 6.34578 9.65403 6.31087C10.4194 6.27597 10.664 6.26758 12.6133 6.26758C14.5626 6.26758 14.8071 6.27597 15.5725 6.31107C16.3366 6.34578 16.8583 6.46709 17.3149 6.64428C17.7938 6.82452 18.2278 7.10719 18.5863 7.47245C18.9514 7.83103 19.2341 8.26476 19.4141 8.7437C19.5917 9.20032 19.713 9.72198 19.7479 10.4861C19.7828 11.2515 19.791 11.496 19.791 13.4453C19.791 15.3946 19.7828 15.6391 19.7477 16.4046Z" fill="white"/>
</g>
<defs>
<clipPath id="clip0_103_1240">
<rect width="25" height="25" fill="white" transform="translate(0.113281 0.945312)"/>
</clipPath>
</defs>
</svg>
