<svg width="240" height="121" viewBox="0 0 240 121" fill="none" xmlns="http://www.w3.org/2000/svg">
<g filter="url(#filter0_d_103_787)">
<path d="M15.1826 10.6136C15.1826 5.0908 19.6598 0.613647 25.1826 0.613647H214.777C220.3 0.613647 224.777 5.0908 224.777 10.6136V79.642C224.777 84.9161 220.681 89.2835 215.418 89.6215L25.8234 101.795C20.0603 102.165 15.1826 97.5904 15.1826 91.8155V10.6136Z" fill="white" fill-opacity="0.05" shape-rendering="crispEdges"/>
</g>
<path d="M20.9541 -3.55785C20.9541 -9.0807 25.4313 -13.5579 30.9541 -13.5579H209.007C214.53 -13.5579 219.007 -9.08071 219.007 -3.55786V73.1507C219.007 78.4282 214.905 82.7972 209.639 83.1307L31.5859 94.4034C25.8261 94.7681 20.9541 90.1948 20.9541 84.4234V-3.55785Z" fill="white" fill-opacity="0.05"/>
<path d="M21.4541 -3.55785C21.4541 -8.80456 25.7074 -13.0579 30.9541 -13.0579H209.007C214.253 -13.0579 218.507 -8.80457 218.507 -3.55786V73.1507C218.507 78.1643 214.611 82.3149 209.607 82.6317L31.5543 93.9044C26.0825 94.2508 21.4541 89.9062 21.4541 84.4234V-3.55785Z" stroke="black" stroke-opacity="0.1"/>
<defs>
<filter id="filter0_d_103_787" x="0.182617" y="-10.3864" width="239.595" height="131.202" filterUnits="userSpaceOnUse" color-interpolation-filters="sRGB">
<feFlood flood-opacity="0" result="BackgroundImageFix"/>
<feColorMatrix in="SourceAlpha" type="matrix" values="0 0 0 0 0 0 0 0 0 0 0 0 0 0 0 0 0 0 127 0" result="hardAlpha"/>
<feOffset dy="4"/>
<feGaussianBlur stdDeviation="7.5"/>
<feComposite in2="hardAlpha" operator="out"/>
<feColorMatrix type="matrix" values="0 0 0 0 0.629167 0 0 0 0 0.629167 0 0 0 0 0.629167 0 0 0 0.25 0"/>
<feBlend mode="normal" in2="BackgroundImageFix" result="effect1_dropShadow_103_787"/>
<feBlend mode="normal" in="SourceGraphic" in2="effect1_dropShadow_103_787" result="shape"/>
</filter>
</defs>
</svg>
