<svg width="26" height="26" viewBox="0 0 26 26" fill="none" xmlns="http://www.w3.org/2000/svg">
<rect x="0.953125" y="0.154907" width="25" height="25" rx="4" fill="#E2E2E2"/>
<path d="M17.8842 15.6438L14.6957 12.4553L17.8842 9.26685C18.2284 8.92261 18.2284 8.36841 17.8842 8.02417C17.5399 7.67993 16.9857 7.67993 16.6415 8.02417L13.453 11.2127L10.2645 8.02417C9.92029 7.67993 9.36609 7.67993 9.02185 8.02417C8.67761 8.36841 8.67761 8.92261 9.02185 9.26685L12.2103 12.4553L9.02185 15.6438C8.67761 15.988 8.67761 16.5422 9.02185 16.8865C9.36609 17.2307 9.92029 17.2307 10.2645 16.8865L13.453 13.698L16.6415 16.8865C16.9857 17.2307 17.5399 17.2307 17.8842 16.8865C18.226 16.5422 18.226 15.9856 17.8842 15.6438Z" fill="white"/>
</svg>
