<svg width="35" height="35" viewBox="0 0 35 35" fill="none" xmlns="http://www.w3.org/2000/svg">
<rect x="0.182617" y="0.759338" width="34" height="34" rx="3" fill="#5661FC"/>
<g clip-path="url(#clip0_201_2)">
<path d="M23.0593 19.9487C22.2021 19.9487 21.3605 19.8147 20.563 19.5511C20.1722 19.4178 19.6918 19.5401 19.4533 19.7851L17.8791 20.9734C16.0535 19.9989 14.929 18.8747 13.9678 17.0629L15.1212 15.5297C15.4208 15.2305 15.5283 14.7933 15.3995 14.3832C15.1349 13.5815 15.0004 12.7403 15.0004 11.8828C15.0004 11.2633 14.4965 10.7593 13.877 10.7593H11.306C10.6866 10.7593 10.1826 11.2633 10.1826 11.8827C10.1826 18.983 15.959 24.7593 23.0593 24.7593C23.6787 24.7593 24.1827 24.2554 24.1827 23.6359V21.0721C24.1826 20.4527 23.6787 19.9487 23.0593 19.9487Z" fill="white"/>
</g>
<defs>
<clipPath id="clip0_201_2">
<rect width="14" height="14" fill="white" transform="translate(10.1826 10.7593)"/>
</clipPath>
</defs>
</svg>
