<svg width="26" height="26" viewBox="0 0 26 26" fill="none" xmlns="http://www.w3.org/2000/svg">
<g clip-path="url(#clip0_103_1246)">
<path d="M11.0566 15.7872L15.1227 13.4454L11.0566 11.1035V15.7872Z" fill="white"/>
<path d="M12.6133 0.945312C5.71078 0.945312 0.113281 6.54281 0.113281 13.4453C0.113281 20.3478 5.71078 25.9453 12.6133 25.9453C19.5158 25.9453 25.1133 20.3478 25.1133 13.4453C25.1133 6.54281 19.5158 0.945312 12.6133 0.945312ZM20.4239 13.4581C20.4239 13.4581 20.4239 15.9931 20.1023 17.2156C19.9221 17.8847 19.3945 18.4122 18.7254 18.5923C17.503 18.9141 12.6133 18.9141 12.6133 18.9141C12.6133 18.9141 7.73638 18.9141 6.50118 18.5795C5.83208 18.3995 5.30451 17.8717 5.12427 17.2026C4.8025 15.9931 4.8025 13.4453 4.8025 13.4453C4.8025 13.4453 4.8025 10.9104 5.12427 9.68803C5.30432 9.01893 5.84486 8.47839 6.50118 8.29833C7.7236 7.97656 12.6133 7.97656 12.6133 7.97656C12.6133 7.97656 17.503 7.97656 18.7254 8.31111C19.3945 8.49117 19.9221 9.01893 20.1023 9.68803C20.4368 10.9104 20.4239 13.4581 20.4239 13.4581Z" fill="white"/>
</g>
<defs>
<clipPath id="clip0_103_1246">
<rect width="25" height="25" fill="white" transform="translate(0.113281 0.945312)"/>
</clipPath>
</defs>
</svg>
