<svg width="100" height="70" viewBox="0 0 100 70" fill="none" xmlns="http://www.w3.org/2000/svg">
<g clip-path="url(#clip0_254_340)">
<path d="M66.6125 34.0778C57.4437 29.2645 48.6645 24.8394 39.6904 20.2192V47.858C49.1338 42.815 59.0875 38.1967 66.6515 34.0778H66.6125Z" fill="white"/>
<path d="M66.6125 34.0778C57.4437 29.2645 39.6904 20.2192 39.6904 20.2192L63.3602 35.8475C63.362 35.8475 59.0485 38.1967 66.6125 34.0778Z" fill="#E8E0E0"/>
<path d="M41.4154 69.4938C22.3709 69.1493 15.8662 68.8395 11.8681 68.0303C9.16306 67.4927 6.81241 66.2989 5.08885 64.5675C3.75675 63.2571 2.69738 61.2578 1.87549 58.4839C1.17048 56.1729 0.895899 54.2501 0.504433 49.5534C-0.0948247 38.9536 -0.237682 30.2874 0.504433 20.6043C1.11668 15.257 1.41352 8.9091 5.48031 5.20571C7.40054 3.47248 9.63431 2.35708 12.1427 1.89598C16.061 1.16515 32.7549 0.587402 50.0369 0.587402C67.2799 0.587402 84.0109 1.16515 87.933 1.89598C91.0666 2.47373 94.0054 4.20513 95.7308 6.43774C99.4414 12.1714 99.5063 19.3012 99.8829 24.8781C100.039 27.5354 100.039 42.6242 99.8829 45.2814C99.2966 54.0952 98.8254 57.2136 97.4933 60.4467C96.6696 62.488 95.9664 63.5651 94.7493 64.7589C92.8405 66.5959 90.4072 67.8178 87.7735 68.2618C71.2929 69.4792 57.2985 69.7435 41.4154 69.4938ZM66.6529 34.0783C57.484 29.265 48.7048 24.8016 39.7308 20.1815V47.822C49.1742 42.7791 59.1297 38.159 66.6918 34.04L66.6529 34.0783Z" fill="#E7C363"/>
</g>
<defs>
<clipPath id="clip0_254_340">
<rect width="100" height="69" fill="white" transform="translate(0 0.583008)"/>
</clipPath>
</defs>
</svg>
